<svg xmlns="http://www.w3.org/2000/svg" width="1024" height="1024"><path d="M366.52 182.48c73.402-32.48 157.28-39.039 235.199-20.558.043 23.437.242 46.879-.04 70.316 36 1.84 72.122-1.52 108.122 1.043-.52 30.52.12 61-.2 91.52 28.16.277 56.32-.16 84.477.238-.156 23.402-.156 46.8.082 70.2 23.602-.04 47.16-.118 70.762-.2 30.2 81.602 30.719 173.883.957 255.723-25.758 72.797-75.48 136.68-139 180.476-56.04 38.84-123 61.84-191.117 65.32-95 5.801-191.602-27.359-263.684-89.398C211.04 754.602 167.121 682 150.762 603c-18.684-82.922-6.524-171.96 31.797-247.68 38.882-76.558 105-138.96 183.96-172.84m122.2 185.48c-41.719 8.4-79.598 34.84-101.48 71.481-21.4 34.079-27.079 76.68-18.56 115.758 9.442 40.242 35.442 76.64 71.2 97.563 37.52 23.437 85.242 27.84 127.2 14.797 36.96-11.88 69-38.32 87.683-72.36 21.957-38.48 25.52-86.719 10.36-128.238-14.763-40.883-47.52-74.762-87.923-90.8-27.8-11.602-59-13.2-88.48-8.2zm0 0" fill="#0051d8"/><path fill="#0051D8" d="M635 95h105v100H635zM860 125h45v45h-45zM780 150h45v45h-45zM825 195h45v45h-45zM728 213h80v80h-80zM817 293h80v80h-80z"/></svg>